<?xml version="1.0" encoding="utf-8"?>
<!-- Generator: Adobe Illustrator 16.0.0, SVG Export Plug-In . SVG Version: 6.00 Build 0)  -->
<!DOCTYPE svg PUBLIC "-//W3C//DTD SVG 1.1//EN" "http://www.w3.org/Graphics/SVG/1.1/DTD/svg11.dtd">
<svg version="1.1" id="Layer_1" xmlns="http://www.w3.org/2000/svg" xmlns:xlink="http://www.w3.org/1999/xlink" x="0px" y="0px"
	 width="86.25px" height="71.656px" viewBox="0 0 86.25 71.656" enable-background="new 0 0 86.25 71.656" xml:space="preserve">
<g>
	<path fill-rule="evenodd" clip-rule="evenodd" fill="#F8D508" d="M16.482,25.97c4.525-0.554,10.475-3.778,17.906,0.417
		c3.289,1.857,11.543,7.721,15.698,4.801c0.004-2.695-3.625-2.603-5.407-4.4c0.815-2.47,10.742-10.725,18.876-4.649
		c1.003,0.747,1.504,1.302,2.239,2.34c1.673,2.365,1.102,1.955,2.547,2.636C67.953-9.733,16.686-7.402,16.482,25.97"/>
	<path fill-rule="evenodd" clip-rule="evenodd" fill="#2F7DC1" d="M32.749,50.017c3.003,1.158,5.351,1.928,8.868,2.041
		c4.277,0.137,6.708-1.217,9.359-1.469c-1.744-0.494-2.023-0.257-3.265-1.069c-11.563,0.507-15.721-16.815-29.995-16.456
		C18.038,40.318,26.967,48.036,32.749,50.017"/>
	<path fill-rule="evenodd" clip-rule="evenodd" fill="#333332" d="M31.561,33.944c0.052,0.011,0.796,0.087,0.895,0.025
		c0.129-3.163,0.879-6.02,2.369-8.666c0.154-0.275,1.156-1.989,1.487-2.148c0.05,0.031,0.017,0.004,0.062,0.049
		c0.299,0.309,0.29,0.646,0.342,1.046l0.168-0.144c0.131,0.411,0.121,0.932,0.09,1.375c0.172-0.104,0.122-0.129,0.287-0.234
		c0.054,1.244-0.215,1.272-0.297,1.732l0.335-0.129c-0.083,0.578-0.28,1.039-0.323,1.329c0.399-0.292,0.667-0.792,0.747-1.299
		l0.12,0.21l0.24-0.35c0.233-0.518,0.247-0.933,0.126-1.462c0.087,0.08,0.077,0.084,0.196,0.133
		c0.035-0.343-0.024-0.786-0.131-1.083c-0.143-0.389-0.324-0.483-0.471-0.718c0.769-0.013,1.936,1.29,2.27,1.897
		c0.145,0.262,0.279,0.697,0.426,0.916c0.203-0.398,0.127-0.743-0.063-1.114l0.262,0.109c-0.022-0.333-0.099-0.59-0.237-0.841
		c-0.104-0.181-0.103-0.154-0.233-0.279c-0.1-0.094-0.141-0.16-0.266-0.231c0.01,0.002,0.114,0.02,0.114,0.019
		c0.119-0.007,0.036,0.019,0.112-0.04c-0.505-0.352-0.627-0.812-1.594-1.007c0.107-0.063,0.084-0.017,0.159-0.099
		c-0.253-0.073-0.579-0.203-0.63-0.383c0.668-0.136,0.86-0.009,1.443,0.082l-0.223-0.272c0.599,0.09,0.996,0.066,1.6,0.009
		c-0.078-0.155-0.123-0.05-0.164-0.141c0.512-0.089,0.753,0.14,1.11,0.269c-0.133-0.347-0.473-0.616-0.816-0.803
		c-0.329-0.179-0.681-0.266-1.038-0.381l-0.11-0.049c-0.005-0.012-0.018-0.008-0.026-0.014c0.085-0.064,0.238-0.137,0.304-0.22
		c-0.271-0.15-0.833-0.149-1.15-0.101c-0.413,0.064-0.647,0.23-0.951,0.295l0.028-0.266c-0.335,0.026-0.507,0.195-0.745,0.259
		c0.285-0.513,1.056-1.646,1.406-2.191c0.115-0.179,0.394-0.593,0.437-0.793c-0.415,0.177-1,0.951-1.303,1.314
		c-0.227,0.271-0.879,1.415-1.023,1.513c-0.021-1.119,0.054-1.29-0.537-2.009c-0.057,0.08-0.042-0.02-0.042,0.138l0.062,0.422
		c-0.081-0.061-0.08-0.096-0.149-0.211c-0.258-0.418-0.834-1.127-1.358-1.12c0.06,0.067,0.379,0.487,0.419,0.578
		c-0.096-0.057-0.124-0.091-0.193-0.153c-0.466-0.401-1.029-0.487-1.646-0.441c0.219,0.253,0.8,0.275,1.123,1.047l-0.372,0.086
		c0.54,0.396,1.224,0.653,1.482,1.337c-0.158-0.194-0.562-0.543-0.961-0.605c0.062,0.09-0.001,0.018,0.084,0.107
		c0.309,0.315,0.706,0.47,0.808,0.983c-0.217-0.26-0.393-0.428-0.685-0.597c-0.297-0.17-0.59-0.295-0.962-0.333
		c0.039,0.086,0.076,0.13,0.119,0.215c-0.555-0.239-0.904-0.35-1.544-0.112l-0.167,0.104c0.098,0.048,0.135,0.095,0.234,0.156
		c-0.355,0.016-0.413-0.034-0.738,0.129c-0.162,0.082-0.406,0.244-0.485,0.357c0.824-0.041,1.322-0.149,2.179,0.124
		c0.349,0.111,1.365,0.512,1.629,0.828l-0.33,0.017c-0.009,0.129-0.018,0.025,0.066,0.159c-0.463-0.026-1.302,0.025-1.534,0.344
		l0.369-0.03c-0.007,0.007-0.02,0.015-0.023,0.02l-0.319,0.169c-0.11,0.057-0.199,0.104-0.301,0.174
		c-0.119,0.084-0.403,0.368-0.44,0.521l0.353-0.153c-0.05,0.018-0.248,0.257-0.31,0.367c-0.113,0.204-0.128,0.349-0.125,0.604
		c0.069-0.039,0.203-0.245,0.458-0.42c0.38-0.264,0.376-0.154,0.449-0.182c0.267-0.107,0.307-0.531,1.057-0.644l-0.074,0.186
		c0.155-0.024,0.555-0.257,0.727-0.334c0.078,0.037,0.008-0.007,0.063,0.076c0.133,0.199-0.079-0.042,0.042,0.079l0.383-0.142
		c-0.006,0.273-0.234,0.392-0.386,0.601c-0.139,0.188-0.271,0.33-0.417,0.531c-0.117,0.164-0.267,0.366-0.394,0.555
		C32.668,27.353,31.807,30.521,31.561,33.944"/>
	<path fill-rule="evenodd" clip-rule="evenodd" fill="#333332" d="M30.861,31.764c0.094-0.007,1.341-0.213,1.476-0.359
		c-1.205-5.241-1.253-10.257,0.007-15.26c0.131-0.518,1.004-3.776,1.477-4.186c0.094,0.032,0.029,0,0.12,0.054
		c0.628,0.372,0.768,0.926,1.028,1.563l0.213-0.311c0.398,0.615,0.613,1.473,0.763,2.212c0.233-0.245,0.142-0.266,0.365-0.51
		c0.642,2.014,0.217,2.18,0.286,2.97l0.492-0.361c0.127,0.983,0.007,1.828,0.067,2.323c0.523-0.657,0.737-1.594,0.643-2.464
		l0.288,0.292l0.239-0.681c0.152-0.954-0.014-1.64-0.448-2.454c0.18,0.093,0.162,0.105,0.383,0.132
		c-0.099-0.577-0.391-1.276-0.703-1.716c-0.404-0.573-0.746-0.646-1.092-0.966c1.256-0.366,3.747,1.249,4.566,2.094
		c0.355,0.366,0.772,1.017,1.107,1.312c0.16-0.746-0.124-1.276-0.598-1.799l0.479,0.062c-0.188-0.537-0.424-0.923-0.77-1.272
		c-0.249-0.251-0.233-0.208-0.506-0.354c-0.205-0.109-0.302-0.198-0.539-0.259c0.021-0.002,0.193-0.02,0.198-0.021
		c0.193-0.066,0.067,0.015,0.167-0.116c-0.986-0.35-1.389-1.049-3.062-0.938c0.143-0.15,0.131-0.064,0.213-0.231
		c-0.442-0.007-1.034-0.076-1.2-0.348c1.029-0.522,1.405-0.398,2.402-0.513l-0.489-0.346c1.021-0.12,1.663-0.338,2.628-0.701
		c-0.199-0.219-0.226-0.028-0.334-0.159c0.8-0.375,1.295-0.107,1.938-0.055c-0.367-0.512-1.047-0.798-1.695-0.952
		c-0.619-0.146-1.232-0.129-1.868-0.159l-0.205-0.029c-0.013-0.018-0.032-0.008-0.052-0.013c0.112-0.142,0.332-0.331,0.4-0.495
		c-0.511-0.126-1.43,0.126-1.93,0.35c-0.646,0.291-0.957,0.667-1.424,0.909L35.816,7.56c-0.535,0.193-0.743,0.547-1.102,0.757
		c0.235-0.967,0.991-3.167,1.32-4.219c0.108-0.346,0.382-1.148,0.362-1.497c-0.599,0.477-1.213,2.007-1.548,2.738
		c-0.249,0.543-0.809,2.71-0.998,2.935c-0.537-1.822-0.492-2.138-1.778-3.05c-0.06,0.155-0.078-0.014-0.009,0.245l0.292,0.666
		c-0.161-0.063-0.173-0.123-0.343-0.279c-0.604-0.572-1.869-1.475-2.729-1.227c0.131,0.082,0.841,0.628,0.947,0.76
		c-0.18-0.051-0.241-0.096-0.383-0.164c-0.943-0.45-1.906-0.339-2.893,0.011c0.471,0.318,1.429,0.094,2.304,1.213l-0.567,0.31
		c1.061,0.406,2.301,0.521,3.027,1.527c-0.349-0.245-1.164-0.638-1.847-0.561c0.138,0.12,0.005,0.031,0.187,0.137
		c0.647,0.378,1.364,0.455,1.764,1.249C31.35,8.78,30.989,8.585,30.433,8.44c-0.562-0.147-1.096-0.222-1.724-0.114
		c0.105,0.123,0.185,0.177,0.29,0.299c-1.015-0.145-1.637-0.17-2.579,0.507l-0.226,0.243c0.18,0.037,0.263,0.096,0.452,0.15
		c-0.577,0.187-0.691,0.131-1.15,0.544c-0.229,0.206-0.558,0.581-0.639,0.801c1.337-0.437,2.103-0.838,3.629-0.773
		c0.619,0.025,2.467,0.227,3.039,0.628l-0.531,0.175c0.041,0.217-0.02,0.049,0.176,0.231c-0.767,0.165-2.115,0.624-2.361,1.25
		l0.594-0.215c-0.009,0.015-0.023,0.032-0.031,0.042l-0.446,0.421c-0.153,0.142-0.279,0.262-0.413,0.422
		c-0.158,0.19-0.497,0.782-0.49,1.051l0.511-0.409c-0.076,0.052-0.291,0.532-0.344,0.739c-0.095,0.386-0.05,0.629,0.065,1.046
		c0.098-0.095,0.225-0.493,0.561-0.894c0.51-0.604,0.551-0.42,0.656-0.501c0.389-0.295,0.267-1.006,1.443-1.527l-0.041,0.339
		c0.246-0.109,0.793-0.67,1.041-0.875c0.146,0.027,0.013-0.014,0.139,0.097c0.308,0.267-0.146-0.033,0.107,0.11l0.561-0.401
		c0.115,0.448-0.207,0.745-0.363,1.155c-0.142,0.37-0.297,0.662-0.443,1.057c-0.12,0.322-0.273,0.718-0.397,1.084
		C29.729,20.468,29.739,26.042,30.861,31.764"/>
	<path fill-rule="evenodd" clip-rule="evenodd" fill="#42A7DE" d="M49.92,25.804c0.005,0.008,7.522,5.116,1.022,8.797
		c-5.978,3.385-17.244-5.759-21.519-6.769c-3.827-0.904-9.177-0.263-12.014,1.841c10.923,1.572,9.788,1.399,18.107,9.338
		c3.831,3.656,10.124,9.568,18.959,7.758c6.248-1.279,12.789-7.506,11.817-15.174C65.266,23.485,55.69,21.234,49.92,25.804"/>
	<g>
		<path fill="#F58220" d="M2.002,63.792l0.052,0.781H0.213v-2.536h1.955c0.328,0.403,0.635,0.688,0.92,0.856
			c0.287,0.17,0.602,0.254,0.944,0.254c0.28,0,0.508-0.061,0.68-0.18s0.259-0.277,0.259-0.475c0-0.186-0.087-0.337-0.254-0.456
			c-0.171-0.118-0.424-0.2-0.76-0.247L3.06,61.657c-0.975-0.143-1.703-0.406-2.184-0.796c-0.48-0.388-0.72-0.906-0.72-1.552
			c0-0.678,0.273-1.24,0.817-1.691c0.545-0.451,1.225-0.677,2.039-0.677c0.432,0,0.813,0.067,1.143,0.202
			c0.329,0.137,0.612,0.342,0.849,0.619l-0.023-0.67h1.836v2.357H4.98c-0.24-0.364-0.487-0.634-0.74-0.809
			c-0.254-0.174-0.526-0.261-0.818-0.261c-0.262,0-0.477,0.063-0.645,0.187c-0.169,0.123-0.255,0.275-0.255,0.457
			c0,0.188,0.089,0.338,0.27,0.449c0.179,0.114,0.478,0.208,0.897,0.281l0.778,0.122c0.971,0.165,1.691,0.44,2.16,0.827
			c0.469,0.385,0.702,0.896,0.702,1.531c0,0.75-0.262,1.353-0.788,1.806c-0.526,0.452-1.231,0.679-2.114,0.679
			c-0.503,0-0.949-0.076-1.351-0.23C2.677,64.335,2.318,64.104,2.002,63.792z"/>
		<path fill="#F58220" d="M8.634,61.988v-3.399H7.776v-1.496h3.935v1.496h-0.889v3.129c0,0.389,0.115,0.684,0.342,0.889
			c0.227,0.202,0.557,0.303,0.989,0.303c0.438,0,0.765-0.101,0.991-0.303c0.226-0.205,0.338-0.5,0.338-0.889v-3.129h-0.881v-1.496
			h3.921v1.496h-0.84v3.399c0,0.841-0.315,1.507-0.946,1.997c-0.63,0.49-1.491,0.734-2.583,0.734c-1.085,0-1.942-0.244-2.572-0.734
			C8.948,63.495,8.634,62.829,8.634,61.988z"/>
		<path fill="#F58220" d="M16.899,64.573v-1.496h0.858v-4.488h-0.858v-1.496h2.995l2.813,4.123l-0.068-2.627h-0.902v-1.496h3.875
			v1.496h-0.846v5.984h-1.823l-3.104-4.508l0.046,3.012h0.893v1.496H16.899z"/>
		<path fill="#F58220" d="M28.03,63.792l0.052,0.781H26.24v-2.536h1.955c0.33,0.403,0.635,0.688,0.921,0.856
			c0.286,0.17,0.599,0.254,0.942,0.254c0.282,0,0.508-0.061,0.681-0.18c0.172-0.119,0.258-0.277,0.258-0.475
			c0-0.186-0.085-0.337-0.255-0.456c-0.17-0.118-0.422-0.2-0.758-0.247l-0.897-0.133c-0.977-0.143-1.703-0.406-2.183-0.796
			c-0.48-0.388-0.722-0.906-0.722-1.552c0-0.678,0.274-1.24,0.817-1.691c0.545-0.451,1.227-0.677,2.043-0.677
			c0.429,0,0.81,0.067,1.139,0.202c0.33,0.137,0.613,0.342,0.85,0.619l-0.024-0.67h1.835v2.357h-1.835
			c-0.238-0.364-0.485-0.634-0.739-0.809c-0.252-0.174-0.526-0.261-0.82-0.261c-0.26,0-0.473,0.063-0.643,0.187
			c-0.169,0.123-0.253,0.275-0.253,0.457c0,0.188,0.089,0.338,0.267,0.449c0.181,0.114,0.479,0.208,0.896,0.281l0.777,0.122
			c0.974,0.165,1.693,0.44,2.162,0.827c0.47,0.385,0.703,0.896,0.703,1.531c0,0.75-0.263,1.353-0.789,1.806
			c-0.526,0.452-1.23,0.679-2.115,0.679c-0.498,0-0.949-0.076-1.349-0.23C28.704,64.335,28.346,64.104,28.03,63.792z"/>
		<path fill="#F58220" d="M34.005,64.573v-1.496h0.855v-4.488h-0.855v-1.496h7.562v2.693h-1.463l-0.514-1.197h-2.529v1.218h1.66
			v1.663h-1.66v1.607h2.529l0.514-1.455h1.463v2.951H34.005z"/>
		<path fill="#F58220" d="M43.882,64.573v-1.496h0.857v-4.51h-0.681l-0.433,1.178h-1.344v-2.652h7.103v2.652h-1.348l-0.429-1.178
			h-0.681v4.51h0.854v1.496H43.882z"/>
		<path fill="#F58220" d="M54.618,64.573v-1.496h0.857v-4.51h-0.681l-0.434,1.178h-1.345v-2.652h7.105v2.652h-1.349l-0.427-1.178
			h-0.682v4.51h0.853v1.496H54.618z"/>
		<path fill="#F58220" d="M60.254,60.835c0-0.588,0.118-1.127,0.354-1.617c0.235-0.49,0.593-0.932,1.068-1.323
			c0.39-0.317,0.817-0.553,1.288-0.705c0.459-0.159,0.974-0.238,1.543-0.238c0.555,0,1.07,0.077,1.543,0.233
			c0.465,0.156,0.896,0.393,1.293,0.71c0.457,0.386,0.812,0.829,1.063,1.329c0.244,0.51,0.365,1.047,0.365,1.611
			c0,0.569-0.121,1.106-0.365,1.613c-0.248,0.497-0.602,0.938-1.063,1.324c-0.396,0.321-0.828,0.557-1.293,0.709
			c-0.488,0.156-1.003,0.234-1.543,0.234c-0.55,0-1.062-0.078-1.538-0.234c-0.48-0.155-0.91-0.393-1.293-0.709
			c-0.468-0.387-0.823-0.827-1.063-1.324C60.378,61.958,60.258,61.42,60.254,60.835z M62.442,60.835
			c0,0.598,0.198,1.095,0.589,1.486c0.393,0.393,0.89,0.588,1.489,0.588c0.591,0,1.083-0.195,1.479-0.588
			c0.392-0.381,0.59-0.877,0.59-1.486c0-0.608-0.198-1.106-0.59-1.496c-0.396-0.395-0.889-0.592-1.479-0.592
			c-0.597,0-1.091,0.197-1.481,0.592C62.643,59.738,62.442,60.238,62.442,60.835z"/>
		<path fill="#F58220" d="M69.624,61.988v-3.399h-0.858v-1.496h3.934v1.496h-0.887v3.129c0,0.389,0.113,0.684,0.342,0.889
			c0.227,0.202,0.557,0.303,0.99,0.303c0.437,0,0.765-0.101,0.989-0.303c0.225-0.205,0.339-0.5,0.339-0.889v-3.129h-0.882v-1.496
			h3.921v1.496h-0.839v3.399c0,0.841-0.315,1.507-0.946,1.997c-0.63,0.49-1.491,0.734-2.582,0.734c-1.086,0-1.943-0.244-2.576-0.734
			C69.939,63.495,69.624,62.829,69.624,61.988z"/>
		<path fill="#F58220" d="M77.901,64.573v-1.496h0.847v-4.488h-0.847v-1.496h5.202c0.655,0,1.188,0.18,1.597,0.539
			c0.411,0.362,0.614,0.828,0.614,1.404c0,0.414-0.111,0.756-0.339,1.021c-0.227,0.266-0.583,0.479-1.065,0.642
			c0.41,0.111,0.689,0.243,0.834,0.395c0.145,0.152,0.217,0.382,0.217,0.685v1.299h0.76v1.496h-2.948v-1.744
			c0-0.627-0.08-1.021-0.243-1.187c-0.163-0.166-0.466-0.25-0.907-0.25h-0.674v1.685h0.674v1.496H77.901z M80.948,58.589v1.582
			h0.863c0.4,0,0.694-0.064,0.885-0.193c0.191-0.127,0.287-0.327,0.287-0.598c0-0.27-0.096-0.47-0.287-0.598
			c-0.19-0.129-0.484-0.193-0.885-0.193H80.948z"/>
	</g>
	<g>
		<path fill="#2F7DC1" d="M20.473,71.503h-0.855v-2.672l-0.616,1.734h-0.593l-0.617-1.734v2.672H16.98v-3.99h0.998l0.748,2.002
			l0.749-2.002h0.997V71.503z"/>
		<path fill="#2F7DC1" d="M24.402,71.503h-0.887l-0.231-0.807h-1.233l-0.231,0.807h-0.866l1.229-3.99h0.989L24.402,71.503z
			 M23.077,69.964l-0.411-1.428l-0.408,1.428H23.077z"/>
		<path fill="#2F7DC1" d="M27.992,71.503h-1.056l-0.996-1.596L25.742,70.2v1.303h-0.861v-3.99h0.861v1.809l1.189-1.809h0.996
			l-1.303,1.848L27.992,71.503z"/>
		<path fill="#2F7DC1" d="M30.824,71.503h-2.409v-3.99h2.409v0.771H29.27v0.688h1.445v0.772H29.27v0.986h1.555V71.503z"/>
		<path fill="#2F7DC1" d="M34.914,71.503h-1.951v-0.707h0.545v-2.574h-0.545v-0.709h1.951v0.709h-0.545v2.574h0.545V71.503z"/>
		<path fill="#2F7DC1" d="M38.221,68.284h-1.04v3.219h-0.859v-3.219h-1.04v-0.771h2.939V68.284z"/>
		<path fill="#2F7DC1" d="M43.452,69.513c0,0.371-0.069,0.704-0.212,0.998c-0.142,0.294-0.321,0.52-0.536,0.676
			c-0.163,0.119-0.343,0.201-0.535,0.246c-0.195,0.047-0.425,0.07-0.69,0.07h-1.176v-3.99h1.209c0.272,0,0.506,0.027,0.705,0.082
			c0.195,0.055,0.359,0.131,0.495,0.232c0.229,0.168,0.413,0.395,0.542,0.679C43.387,68.79,43.452,69.126,43.452,69.513z
			 M42.564,69.504c0-0.263-0.039-0.487-0.119-0.674c-0.08-0.188-0.205-0.333-0.38-0.438c-0.089-0.053-0.177-0.089-0.271-0.106
			c-0.092-0.02-0.229-0.028-0.415-0.028h-0.217v2.498h0.217c0.204,0,0.355-0.012,0.45-0.034c0.097-0.021,0.189-0.063,0.28-0.121
			c0.155-0.107,0.271-0.252,0.345-0.43C42.527,69.991,42.564,69.769,42.564,69.504z"/>
		<path fill="#2F7DC1" d="M45.91,71.503h-1.951v-0.707h0.546v-2.574h-0.546v-0.709h1.951v0.709h-0.547v2.574h0.547V71.503z"/>
		<path fill="#2F7DC1" d="M48.997,68.284h-1.532v0.742h1.422V69.8h-1.422v1.703H46.61v-3.99h2.387V68.284z"/>
		<path fill="#2F7DC1" d="M51.979,68.284h-1.533v0.742h1.421V69.8h-1.421v1.703h-0.854v-3.99h2.388V68.284z"/>
		<path fill="#2F7DC1" d="M54.981,71.503h-2.409v-3.99h2.409v0.771h-1.555v0.688h1.441v0.772h-1.441v0.986h1.555V71.503z"/>
		<path fill="#2F7DC1" d="M58.912,71.503h-1.051l-0.907-1.463h-0.398v1.463h-0.854v-3.99h1.441c0.197,0,0.366,0.014,0.508,0.04
			c0.142,0.027,0.275,0.085,0.399,0.175c0.125,0.088,0.226,0.205,0.297,0.347c0.075,0.142,0.112,0.321,0.112,0.536
			c0,0.293-0.059,0.534-0.171,0.72c-0.114,0.187-0.277,0.34-0.489,0.464L58.912,71.503z M57.569,68.735
			c0-0.1-0.018-0.186-0.05-0.258c-0.034-0.071-0.094-0.127-0.179-0.169c-0.057-0.028-0.125-0.046-0.202-0.052
			c-0.078-0.006-0.168-0.01-0.271-0.01h-0.313v1.074h0.266c0.136,0,0.252-0.008,0.344-0.023c0.093-0.016,0.171-0.053,0.233-0.11
			c0.059-0.055,0.104-0.116,0.13-0.184C57.557,68.937,57.569,68.848,57.569,68.735z"/>
		<path fill="#2F7DC1" d="M61.697,71.503h-2.411v-3.99h2.411v0.771h-1.556v0.688h1.443v0.772h-1.443v0.986h1.556V71.503z"/>
		<path fill="#2F7DC1" d="M65.447,71.503h-0.828l-1.413-2.738v2.738h-0.788v-3.99h1.025l1.216,2.287v-2.287h0.788V71.503z"/>
		<path fill="#2F7DC1" d="M68.904,68.284h-1.041v3.219h-0.858v-3.219h-1.04v-0.771h2.939V68.284z"/>
	</g>
</g>
</svg>
